<svg width="1000" height="1000" viewBox="0 0 1000 1000" fill="none" xmlns="http://www.w3.org/2000/svg">
<g clip-path="url(#clip0_2_30)">
<path d="M293.1 72C293.567 72 294 72 294.4 72C325.9 71.3 357.4 71.8 388.9 71.8H560.4H664.1C701.9 71.8 741 70.9 778.2 78.7C812.3 85.9 844 100.6 869.4 124.7C910.3 163.5 926.3 217.5 927.7 272.5C928.5 305.3 927.8 338.2 927.8 371V560.8V666.2C927.8 701.9 929.1 738.2 921.8 773.5C914.7 807.7 899.4 841.2 875.2 866.7C827.5 916.9 773.7 926 707.3 927.7L416.3 927.8H330.4C293.9 927.8 256.9 928.5 221 920.4C187.6 912.8 157.1 897.7 132.2 874C87.8 831.7 74.3 776.6 72.9 717.1C72 682.8 72.7 648.3 72.7 613.9V422.4V319.8C72.7 288.3 71.5 256.3 77.6 225.2C84.3 190.9 98.7 157.5 123.1 132C159.1 94.4 204.3 78.1 255.5 73.6C268 72.5 280.6 72.3 293.1 72Z" fill="url(#paint0_linear_2_30)"/>
<path d="M340.7 218.8C340.6 210 340.9 201.8 347.5 195C355.5 186.8 367.1 188.4 377.5 188.5C383.4 188.5 401.8 190.2 406.1 186.2C410.2 182.3 412.3 175.3 415.2 170.3C424.9 153.5 443.9 143.8 463.1 143.7C477.5 143.6 491.9 148.7 502.1 158.9C505.3 162.1 508.1 165.6 510.4 169.5C513.6 174.6 516.4 184.4 521.7 187.5C523.8 188.8 528.6 188.6 531.1 188.6C537.3 188.6 543.4 188.5 549.6 188.4C559.6 188.4 570.4 187.2 578.1 195.1C584.6 201.9 584.7 210.1 584.6 218.8H639.6C647 218.7 657.8 217.8 664.7 219.2C679 220 692.8 228.4 702.2 238.8C708.5 245.9 714 255.1 716.2 264.4C719.2 277.6 717.8 302.3 717.8 316.4L717.7 406.3C745.8 406.3 769.7 403.8 791.3 425.3C808.2 442.1 809.6 458.5 809.5 481V617.4V652C809.5 661.8 810.1 671.9 808 681.6C805.5 694 799.3 705.4 790.3 714.4C769.8 734.7 744.3 732.7 717.8 732.6C718 749.5 713.9 764.2 702.5 777.2C692.1 789.1 677.7 797.6 661.6 798.6C651.9 799.2 641.9 798.8 632.1 798.8L581.2 798.7H418.5H310.6L280.1 798.8C273 798.8 265.7 799.1 258.6 798.2C247.6 796.6 237 790.9 228.8 783.5C216.1 772.5 208.4 756.9 207.3 740.2C206.7 728.5 207.1 716.5 207.2 704.8V643.3V449.6V327.3V291.1C207.2 283.7 206.8 276 207.8 268.6C209.3 257.3 215.2 246.5 222.8 238.1C231.8 228.2 245.5 219.8 259.2 219.2C267.7 217.9 277.3 218.8 286 218.8H340.7Z" fill="#FDFDFD"/>
<path d="M504.1 427.2C504.833 426.4 505.6 425.6 506.4 424.8C514.9 416.4 525.6 410.5 537.3 408C547.7 405.8 558.5 406.3 569 406.3L601.4 406.4L717.7 406.3C745.8 406.3 769.7 403.8 791.3 425.3C808.2 442.1 809.6 458.5 809.5 481V617.4V652C809.5 661.8 810.1 671.9 808 681.6C805.5 694 799.3 705.4 790.3 714.4C769.8 734.7 744.3 732.7 717.8 732.6C704.8 732.2 691.7 732.5 678.7 732.5H604.1H572C557.7 732.5 543.4 733.5 529.7 728.9C512.1 722.9 500.2 709.8 492.2 693.5C489.3 685.8 487.8 678.3 487.5 670.1C487 650.9 487.4 631.6 487.4 612.4C487.6 605.1 487.4 597.8 487.4 590.5V531.2C487.6 523.8 487.4 516.3 487.4 508.8C487.2 491 485.6 465.7 490.9 449.3C493.8 440.9 498.5 433.9 504.1 427.2Z" fill="#349CF9"/>
<path d="M550.5 428.9C565.3 428.4 580.3 428.8 595.2 428.8H679.9H725.6C734.6 428.8 744.2 428.1 753.1 429.5C760.9 430.6 768.1 433.9 773.9 439.1C783 447.4 787.1 458.1 787.5 470.2C788.1 485.4 787.6 500.8 787.5 516L787.6 601.8V649.4C787.6 657.8 788.3 666.9 787 675.2C785.8 683.6 782 691.4 776.1 697.5C768.7 705.5 758.9 709.7 748.1 710H609.5L567.5 710.1C559.6 710.1 551.2 710.7 543.4 709.6C536.7 708.6 529.6 705.3 524.5 700.9C515.4 693.3 510.9 683.4 510.1 671.7C509.1 658.3 509.9 644.3 509.9 630.8V552.2V494.4C509.9 484.5 509 473.5 510.4 463.7C511.6 456 514.7 448.8 519.8 442.8C527.9 433.5 538.5 429.7 550.5 428.9Z" fill="#FDFDFD"/>
<path d="M589.2 477.2C590.9 477 592.7 477.1 594.4 477.1C619.6 476.7 644.9 477.1 670.1 477.1C681.8 477.1 703.7 475.9 714.2 477.8C720.4 478.9 726.1 481.6 730.6 486.1C737.9 493.3 740.3 502.7 740.3 512.7V566.7C740.4 576.7 741.3 587.5 740 597.4C739.5 601.5 738.1 605.5 736 609.1C731.9 615.8 725.2 621.6 719.7 627.2L697.2 650.1C690.5 657 683.9 661.5 674.2 662.7C668.5 663.4 662.6 663.1 656.9 663.1L631.1 663C619 663 597.6 664.2 586.6 662.4C580.6 661.4 574.8 659 570.1 655.2C563.6 650.1 558.8 642.2 557.9 633.9C557 624.9 557.5 615.6 557.5 606.6V560.2V524.3C557.5 518.1 557 511.2 557.9 505C558.7 499.6 561.4 493.7 564.9 489.5C571.1 481.9 579.6 478.2 589.2 477.2Z" fill="#349CF9"/>
<path d="M591.1 499.6C600.1 499.3 609.2 499.5 618.1 499.5L668 499.6C676.6 499.6 702.5 498.4 709.3 500.1C712 500.7 714.8 502.6 716.2 505.1C717.3 507.1 717.6 509.8 717.7 512.1C718.5 525.3 717.7 538.9 717.7 552.1C717.7 561 718.9 583.1 717.2 589.9C716.9 591.3 716.3 592.9 715.1 593.8C707.7 599.7 676.7 591.5 665.2 598.3L664.7 598.7C664.567 598.833 664.4 598.967 664.2 599.1C662.7 600.6 661.6 602.1 661 604.2C659 611.3 660.2 631.7 660.2 640.4C644.2 639.8 628 640.4 611.9 640.4C605.8 640.4 599.5 640.8 593.4 640.2C590.9 640 588.2 639.6 585.8 638.4C583.1 637 580.9 633.7 580.1 630.8C578.9 625.8 579.6 619.4 579.6 614.3V586.8V539.8C579.6 531.1 579.2 522.2 579.8 513.5C580 510.6 580.2 507.8 581.8 505.3C584 502 587.3 500.5 591.1 499.6Z" fill="#FDFDFD"/>
<path d="M340.7 218.8C340.6 210 340.9 201.8 347.5 195C355.5 186.8 367.1 188.4 377.5 188.5C383.4 188.5 401.8 190.2 406.1 186.2C410.2 182.3 412.3 175.3 415.2 170.3C424.9 153.5 443.9 143.8 463.1 143.7C477.5 143.6 491.9 148.7 502.1 158.9C505.3 162.1 508.1 165.6 510.4 169.5C513.6 174.6 516.4 184.4 521.7 187.5C523.8 188.8 528.6 188.6 531.1 188.6C537.3 188.6 543.4 188.5 549.6 188.4C559.6 188.4 570.4 187.2 578.1 195.1C584.6 201.9 584.7 210.1 584.6 218.8H639.6C647 218.7 657.8 217.8 664.7 219.2C655.4 219.6 646 219.3 636.7 219.3H584.5L584.6 237.6C584.6 248.1 585.4 258 577.2 266.1C573.7 269.4 569.4 271.4 564.6 272C557.6 273 550 272.5 542.9 272.5H504.4H371.2C362.3 272.5 354 272.5 347.3 265.5C339.6 257.5 340.6 246.9 340.6 236.6L340.8 219.2C313.6 219.4 286.3 220 259.2 219.2C267.7 217.9 277.3 218.8 286 218.8H340.7Z" fill="#CED7E3"/>
<path d="M461.7 175.4C466.2 175.5 470.5 176.2 474.5 178.5C478.6 181 481.6 184.9 482.7 189.6C483.7 194.2 482.7 199 480 202.8C476.5 207.8 471.5 209.9 465.7 211C460 211.2 454.9 210.6 450 207.3C446.1 204.6 443.3 200.6 442.6 195.9C441.8 191.3 443 186.6 445.9 182.9C449.8 177.9 455.6 176.1 461.7 175.4Z" fill="#349CF9"/>
<path d="M490.9 449.3L352.4 449.2H314.5C307.4 449.3 299.9 449.8 292.8 449.3C289.8 449 286.4 448.5 284 446.5C281.7 444.7 280.4 441.8 280.3 438.9C280.1 435.7 281.3 432.4 283.6 430.1C285.1 428.5 286.8 427.7 289 427.5C296.4 426.6 304.6 427.2 312.1 427.2H356.2H504.1C498.5 433.9 493.8 440.9 490.9 449.3ZM487.4 531.2L353.3 531.3H312.1C304.7 531.3 297 531.7 289.6 530.9C287.3 530.7 285.2 529.7 283.6 528.1C281.4 526 280.2 523.1 280.2 520C280.2 517.1 281.4 514.2 283.5 512.1C285.8 509.8 289.6 509.1 292.8 508.9C299.9 508.3 307.3 508.8 314.5 508.8L355 508.9L487.4 508.8C487.4 516.3 487.6 523.8 487.4 531.2ZM487.5 670.1C487.8 678.3 489.3 685.8 492.2 693.5C485.6 694.4 478.1 693.8 471.4 693.8H429C384.4 693.8 339.8 694.3 295.2 693.8C292.9 693.7 289.1 694 287 693.1C284.3 692 282.3 689.8 281.1 687.1C279.9 684.3 280 681.1 281.2 678.2C282.3 675.5 284.5 673.4 287.4 672.4C292.5 670.7 314.6 671.8 321.8 671.8H444.5C450.1 671.8 484.3 672.5 487 671.5L487.5 670.1ZM487.4 590.5C487.4 597.8 487.6 605.1 487.4 612.4H351.6H313.2C305.9 612.4 298.2 613.1 291 612.4C288.2 612.2 285.7 611.3 283.6 609.5C281.5 607.8 280.4 605.5 280.2 602.8C280.1 599.4 280.9 596 283.3 593.6C285.3 591.5 287.5 591 290.4 590.7C298.3 589.9 306.6 590.4 314.6 590.4H356.9L487.4 590.5ZM288.7 345.7C316.8 344.8 345.3 345.6 373.5 345.6H532.6L601.2 345.5C609.5 345.5 631.6 344.5 638 346.4C640.6 347.2 642.7 348.8 643.9 351.2C645.3 354.1 645.1 357.7 643.9 360.6C642.6 364.1 640.4 365.7 637 367.2L636.1 367.3C624.3 368.5 607.3 367.5 595.1 367.5H513.4L368.6 367.6C344.4 367.6 320 368.2 295.8 367.5C292.9 367.4 287 367.6 284.8 365.6C284.667 365.533 284.533 365.433 284.4 365.3C282.8 363.8 281.5 362.3 280.8 360.2C279.8 357.2 280.1 353.8 281.7 351C283.3 348 285.6 346.7 288.7 345.7Z" fill="#CED7E3"/>
</g>
<defs>
<linearGradient id="paint0_linear_2_30" x1="44713.6" y1="-88120.4" x2="-218122" y2="-880534" gradientUnits="userSpaceOnUse">
<stop stop-color="#2280E6"/>
<stop offset="1" stop-color="#2280E6"/>
</linearGradient>
<clipPath id="clip0_2_30">
<rect width="1000" height="1000" fill="white"/>
</clipPath>
</defs>
</svg>
